<svg width="239" height="31" viewBox="0 0 239 31" fill="none" xmlns="http://www.w3.org/2000/svg">
<path d="M21.251 0.145325H30.5771V30.1584H21.251V18.4584H10.0597V30.1584H0.733643V0.145325H10.0597V11.8453H21.251V0.145325Z" fill="#F8C617"/>
<path d="M38.0381 0.145386H47.7033V30.1584H38.0381V0.145386Z" fill="#F8C617"/>
<path d="M82.6335 8.96277H73.3074V6.92799C73.3074 6.24973 73.1379 5.9106 72.9683 5.74104C72.7987 5.57147 72.29 5.40191 71.7813 5.40191H65.8466C65.1683 5.40191 64.8292 5.57147 64.6596 5.74104C64.49 5.9106 64.3205 6.24973 64.3205 6.92799V23.7149C64.3205 24.3932 64.49 24.7323 64.6596 24.9019C64.8292 25.0715 65.1683 25.241 65.8466 25.241H71.7813C72.4596 25.241 72.7987 25.0715 72.9683 24.9019C73.1379 24.7323 73.3074 24.3932 73.3074 23.7149V18.628H68.39V12.0149H82.6335V26.428C82.6335 28.9715 81.277 30.328 78.7335 30.328H58.8944C56.3509 30.328 54.9944 29.141 54.9944 26.428V4.04538C54.9944 1.50191 56.1813 0.145386 58.8944 0.145386H78.9031C81.4465 0.145386 82.8031 1.50191 82.8031 4.04538V8.96277H82.6335Z" fill="#F8C617"/>
<path d="M110.443 0.145386H119.769V30.1584H110.443V18.4584H99.2514V30.1584H89.9253V0.145386H99.2514V11.8454H110.443V0.145386Z" fill="#F8C617"/>
<path d="M167.755 0.145386H176.742L167.077 30.1584H156.225L150.459 9.64104L144.694 30.1584H133.842L124.177 0.145386H133.672L139.268 21.8497L145.033 0.145386H155.716L161.481 21.8497L167.755 0.145386Z" fill="#F8C617"/>
<path d="M199.973 30.328L198.277 24.9019L185.729 24.7323L183.864 30.1584H174.877L186.238 0.145386H197.768L209.299 30.1584H199.973V30.328ZM187.764 18.1193H195.903L191.834 5.74104L187.764 18.1193Z" fill="#F8C617"/>
<path d="M226.934 30.328H217.608V20.4933L205.399 0.315002H214.555L222.186 15.4063L229.477 0.315002H238.634L226.934 20.4933V30.328Z" fill="#F8C617"/>
</svg>
